<svg xmlns="http://www.w3.org/2000/svg" viewBox="0 0 70.48 69.09"><defs><style>.cls-1{fill:#b3cde4;}.cls-2{fill:none;stroke:#fff;stroke-miterlimit:10;stroke-width:2.11px;}.cls-3{opacity:0.6;}.cls-4{fill:#fff;}</style></defs><title>Recurso 22</title><g id="Capa_2" data-name="Capa 2"><g id="Capa_2-2" data-name="Capa 2"><rect class="cls-1" width="70.48" height="69.09" rx="16.46"/><path class="cls-2" d="M57.55,46.86c-.13-.38-.94-1-2.42-1.69l-1.72-1c-.74-.4-1.42-.78-2-1.12s-1.17-.66-1.7-1l-.8-.56a8.83,8.83,0,0,0-1.13-.68,2.08,2.08,0,0,0-.91-.23,2.69,2.69,0,0,0-1.59.91,16.42,16.42,0,0,0-1.75,2,19.24,19.24,0,0,1-1.68,2,2.46,2.46,0,0,1-1.47.9,2.2,2.2,0,0,1-.71-.15L39,46l-.76-.45-.6-.37a33.54,33.54,0,0,1-7.48-5.53,33.49,33.49,0,0,1-5.54-7.48s-.14-.25-.37-.61-.37-.61-.44-.76a5.17,5.17,0,0,1-.27-.65,2.1,2.1,0,0,1-.16-.72A2.39,2.39,0,0,1,24.28,28a18,18,0,0,1,2-1.69,14.93,14.93,0,0,0,2-1.75,2.64,2.64,0,0,0,.91-1.59,2.21,2.21,0,0,0-.22-.91,9.08,9.08,0,0,0-.69-1.13l-.55-.79c-.32-.53-.65-1.1-1-1.7l-1.12-2c-.4-.74-.72-1.31-.95-1.71-.74-1.49-1.3-2.3-1.69-2.42a1.6,1.6,0,0,0-.66-.1,10.72,10.72,0,0,0-2.25.32,12.81,12.81,0,0,0-2.18.67c-1.06.44-2.18,1.74-3.37,3.88a12.35,12.35,0,0,0-1.62,5.92A11.43,11.43,0,0,0,13,24.6a12,12,0,0,0,.4,1.83c.19.68.34,1.18.46,1.51s.33.92.65,1.77.51,1.37.57,1.56a28.74,28.74,0,0,0,2.64,5.57,47.18,47.18,0,0,0,6.86,8.41A47.22,47.22,0,0,0,33,52.11a28.46,28.46,0,0,0,5.57,2.64l1.56.58,1.76.65c.33.11.83.27,1.51.46a15,15,0,0,0,1.83.4,13,13,0,0,0,1.67.11,12.35,12.35,0,0,0,5.92-1.62C54.91,54.14,56.21,53,56.65,52a11.71,11.71,0,0,0,.67-2.18,10.64,10.64,0,0,0,.32-2.24A1.89,1.89,0,0,0,57.55,46.86Z"/><g class="cls-3"><path class="cls-4" d="M57.55,46.86c-.13-.38-.94-1-2.42-1.69l-1.72-1c-.74-.4-1.42-.78-2-1.12s-1.17-.66-1.7-1l-.8-.56a8.83,8.83,0,0,0-1.13-.68,2.08,2.08,0,0,0-.91-.23,2.69,2.69,0,0,0-1.59.91,16.42,16.42,0,0,0-1.75,2,19.24,19.24,0,0,1-1.68,2,2.46,2.46,0,0,1-1.47.9,2.2,2.2,0,0,1-.71-.15L39,46l-.76-.45-.6-.37a33.54,33.54,0,0,1-7.48-5.53,33.49,33.49,0,0,1-5.54-7.48s-.14-.25-.37-.61-.37-.61-.44-.76a5.17,5.17,0,0,1-.27-.65,2.1,2.1,0,0,1-.16-.72A2.39,2.39,0,0,1,24.28,28a18,18,0,0,1,2-1.69,14.93,14.93,0,0,0,2-1.75,2.64,2.64,0,0,0,.91-1.59,2.21,2.21,0,0,0-.22-.91,9.08,9.08,0,0,0-.69-1.13l-.55-.79c-.32-.53-.65-1.1-1-1.7l-1.12-2c-.4-.74-.72-1.31-.95-1.71-.74-1.49-1.3-2.3-1.69-2.42a1.6,1.6,0,0,0-.66-.1,10.72,10.72,0,0,0-2.25.32,12.81,12.81,0,0,0-2.18.67c-1.06.44-2.18,1.74-3.37,3.88a12.35,12.35,0,0,0-1.62,5.92A11.43,11.43,0,0,0,13,24.6a12,12,0,0,0,.4,1.83c.19.68.34,1.18.46,1.51s.33.92.65,1.77.51,1.37.57,1.56a28.74,28.74,0,0,0,2.64,5.57,47.18,47.18,0,0,0,6.86,8.41A47.22,47.22,0,0,0,33,52.11a28.46,28.46,0,0,0,5.57,2.64l1.56.58,1.76.65c.33.11.83.27,1.51.46a15,15,0,0,0,1.83.4,13,13,0,0,0,1.67.11,12.35,12.35,0,0,0,5.92-1.62C54.91,54.14,56.21,53,56.65,52a11.71,11.71,0,0,0,.67-2.18,10.64,10.64,0,0,0,.32-2.24A1.89,1.89,0,0,0,57.55,46.86Z"/></g></g></g></svg>