<?xml version="1.0" ?><svg id="Icon" viewBox="0 0 64 64" xmlns="http://www.w3.org/2000/svg" xmlns:xlink="http://www.w3.org/1999/xlink"><defs><style>.cls-1{fill:url(#linear-gradient);}.cls-2{fill:url(#linear-gradient-2);}.cls-3{fill:url(#linear-gradient-3);}.cls-4{fill:url(#linear-gradient-4);}</style><linearGradient gradientUnits="userSpaceOnUse" id="linear-gradient" x1="61.594" x2="37.043" y1="31.94" y2="31.94"><stop offset="0" stop-color="#fcb64d"/><stop offset="1" stop-color="#f78c1e"/></linearGradient><linearGradient gradientUnits="userSpaceOnUse" id="linear-gradient-2" x1="32" x2="32" y1="26.96" y2="54.169"><stop offset="0" stop-color="#faa629"/><stop offset="1" stop-color="#f78c1e"/></linearGradient><linearGradient id="linear-gradient-3" x1="0.168" x2="21.322" xlink:href="#linear-gradient" y1="31.94" y2="31.94"/><linearGradient gradientUnits="userSpaceOnUse" id="linear-gradient-4" x1="32" x2="32" y1="12.584" y2="35.399"><stop offset="0" stop-color="#fecc81"/><stop offset="1" stop-color="#faa629"/></linearGradient></defs><path class="cls-1" d="M59,16.735v30.53a2.01,2.01,0,0,1-.6,1.43l-21.24-20,21.11-13.51A2,2,0,0,1,59,16.735Z"/><path class="cls-2" d="M58.4,48.7a2,2,0,0,1-1.4.57H7a2,2,0,0,1-1.4-.57l21.24-20L32,32l5.16-3.3Z"/><path class="cls-3" d="M26.84,28.7,5.6,48.7a2.01,2.01,0,0,1-.6-1.43V16.735a2,2,0,0,1,.73-1.55Z"/><path class="cls-4" d="M58.27,15.185,37.16,28.7,32,32l-5.16-3.3L5.73,15.185A2.026,2.026,0,0,1,7,14.735H57A2.026,2.026,0,0,1,58.27,15.185Z"/></svg>